<svg id="visual" viewBox="0 0 900 600" width="900" height="600" xmlns="http://www.w3.org/2000/svg" xmlns:xlink="http://www.w3.org/1999/xlink" version="1.1"><rect x="0" y="0" width="900" height="600" fill="#001122"></rect><defs><linearGradient id="grad1_0" x1="33.3%" y1="0%" x2="100%" y2="100%"><stop offset="20%" stop-color="#009473" stop-opacity="1"></stop><stop offset="80%" stop-color="#009473" stop-opacity="1"></stop></linearGradient></defs><defs><linearGradient id="grad1_1" x1="33.3%" y1="0%" x2="100%" y2="100%"><stop offset="20%" stop-color="#009473" stop-opacity="1"></stop><stop offset="80%" stop-color="#008173" stop-opacity="1"></stop></linearGradient></defs><defs><linearGradient id="grad1_2" x1="33.3%" y1="0%" x2="100%" y2="100%"><stop offset="20%" stop-color="#006d6f" stop-opacity="1"></stop><stop offset="80%" stop-color="#008173" stop-opacity="1"></stop></linearGradient></defs><defs><linearGradient id="grad1_3" x1="33.3%" y1="0%" x2="100%" y2="100%"><stop offset="20%" stop-color="#006d6f" stop-opacity="1"></stop><stop offset="80%" stop-color="#005966" stop-opacity="1"></stop></linearGradient></defs><defs><linearGradient id="grad1_4" x1="33.3%" y1="0%" x2="100%" y2="100%"><stop offset="20%" stop-color="#004659" stop-opacity="1"></stop><stop offset="80%" stop-color="#005966" stop-opacity="1"></stop></linearGradient></defs><defs><linearGradient id="grad1_5" x1="33.3%" y1="0%" x2="100%" y2="100%"><stop offset="20%" stop-color="#004659" stop-opacity="1"></stop><stop offset="80%" stop-color="#003349" stop-opacity="1"></stop></linearGradient></defs><defs><linearGradient id="grad1_6" x1="33.3%" y1="0%" x2="100%" y2="100%"><stop offset="20%" stop-color="#002236" stop-opacity="1"></stop><stop offset="80%" stop-color="#003349" stop-opacity="1"></stop></linearGradient></defs><defs><linearGradient id="grad1_7" x1="33.3%" y1="0%" x2="100%" y2="100%"><stop offset="20%" stop-color="#002236" stop-opacity="1"></stop><stop offset="80%" stop-color="#001122" stop-opacity="1"></stop></linearGradient></defs><defs><linearGradient id="grad2_0" x1="0%" y1="0%" x2="66.7%" y2="100%"><stop offset="20%" stop-color="#009473" stop-opacity="1"></stop><stop offset="80%" stop-color="#009473" stop-opacity="1"></stop></linearGradient></defs><defs><linearGradient id="grad2_1" x1="0%" y1="0%" x2="66.7%" y2="100%"><stop offset="20%" stop-color="#008173" stop-opacity="1"></stop><stop offset="80%" stop-color="#009473" stop-opacity="1"></stop></linearGradient></defs><defs><linearGradient id="grad2_2" x1="0%" y1="0%" x2="66.7%" y2="100%"><stop offset="20%" stop-color="#008173" stop-opacity="1"></stop><stop offset="80%" stop-color="#006d6f" stop-opacity="1"></stop></linearGradient></defs><defs><linearGradient id="grad2_3" x1="0%" y1="0%" x2="66.7%" y2="100%"><stop offset="20%" stop-color="#005966" stop-opacity="1"></stop><stop offset="80%" stop-color="#006d6f" stop-opacity="1"></stop></linearGradient></defs><defs><linearGradient id="grad2_4" x1="0%" y1="0%" x2="66.7%" y2="100%"><stop offset="20%" stop-color="#005966" stop-opacity="1"></stop><stop offset="80%" stop-color="#004659" stop-opacity="1"></stop></linearGradient></defs><defs><linearGradient id="grad2_5" x1="0%" y1="0%" x2="66.7%" y2="100%"><stop offset="20%" stop-color="#003349" stop-opacity="1"></stop><stop offset="80%" stop-color="#004659" stop-opacity="1"></stop></linearGradient></defs><defs><linearGradient id="grad2_6" x1="0%" y1="0%" x2="66.7%" y2="100%"><stop offset="20%" stop-color="#003349" stop-opacity="1"></stop><stop offset="80%" stop-color="#002236" stop-opacity="1"></stop></linearGradient></defs><defs><linearGradient id="grad2_7" x1="0%" y1="0%" x2="66.7%" y2="100%"><stop offset="20%" stop-color="#001122" stop-opacity="1"></stop><stop offset="80%" stop-color="#002236" stop-opacity="1"></stop></linearGradient></defs><g transform="translate(900, 0)"><path d="M0 540.8C-32.7 502.4 -65.5 463.9 -103.9 455.3C-142.4 446.6 -186.5 467.8 -221.7 460.4C-256.9 453 -283.2 417.2 -311.1 390.1C-339 363.1 -368.6 344.9 -404.2 322.3C-439.8 299.8 -481.5 272.8 -487.3 234.7C-493.1 196.6 -463.1 147.3 -466 106.4C-469 65.4 -504.9 32.7 -540.8 0L0 0Z" fill="#001a2c"></path><path d="M0 473.2C-28.6 439.6 -57.3 406 -90.9 398.4C-124.6 390.8 -163.2 409.3 -194 402.8C-224.8 396.4 -247.8 365 -272.2 341.4C-296.7 317.7 -322.5 301.8 -353.7 282.1C-384.8 262.3 -421.3 238.7 -426.4 205.3C-431.5 172 -405.2 128.9 -407.8 93.1C-410.3 57.2 -441.8 28.6 -473.2 0L0 0Z" fill="#002b40"></path><path d="M0 405.6C-24.6 376.8 -49.1 348 -77.9 341.5C-106.8 335 -139.9 350.8 -166.3 345.3C-192.7 339.8 -212.4 312.9 -233.3 292.6C-254.3 272.3 -276.5 258.7 -303.2 241.8C-329.9 224.8 -361.1 204.6 -365.5 176C-369.8 147.4 -347.3 110.5 -349.5 79.8C-351.7 49.1 -378.7 24.5 -405.6 0L0 0Z" fill="#003d52"></path><path d="M0 338C-20.5 314 -40.9 290 -64.9 284.6C-89 279.1 -116.6 292.4 -138.6 287.7C-160.6 283.1 -177 260.7 -194.5 243.8C-211.9 226.9 -230.4 215.6 -252.6 201.5C-274.9 187.3 -300.9 170.5 -304.5 146.7C-308.2 122.8 -289.4 92.1 -291.3 66.5C-293.1 40.9 -315.6 20.4 -338 0L0 0Z" fill="#005060"></path><path d="M0 270.4C-16.4 251.2 -32.7 232 -52 227.6C-71.2 223.3 -93.3 233.9 -110.9 230.2C-128.5 226.5 -141.6 208.6 -155.6 195.1C-169.5 181.6 -184.3 172.5 -202.1 161.2C-219.9 149.9 -240.7 136.4 -243.6 117.3C-246.5 98.3 -231.5 73.7 -233 53.2C-234.5 32.7 -252.5 16.4 -270.4 0L0 0Z" fill="#00636b"></path><path d="M0 202.8C-12.3 188.4 -24.6 174 -39 170.7C-53.4 167.5 -69.9 175.4 -83.1 172.6C-96.3 169.9 -106.2 156.4 -116.7 146.3C-127.1 136.2 -138.2 129.3 -151.6 120.9C-164.9 112.4 -180.5 102.3 -182.7 88C-184.9 73.7 -173.6 55.2 -174.8 39.9C-175.9 24.5 -189.3 12.3 -202.8 0L0 0Z" fill="#007772"></path><path d="M0 135.2C-8.2 125.6 -16.4 116 -26 113.8C-35.6 111.7 -46.6 116.9 -55.4 115.1C-64.2 113.3 -70.8 104.3 -77.8 97.5C-84.8 90.8 -92.2 86.2 -101.1 80.6C-110 74.9 -120.4 68.2 -121.8 58.7C-123.3 49.1 -115.8 36.8 -116.5 26.6C-117.2 16.4 -126.2 8.2 -135.2 0L0 0Z" fill="#008a73"></path><path d="M0 67.6C-4.1 62.8 -8.2 58 -13 56.9C-17.8 55.8 -23.3 58.5 -27.7 57.5C-32.1 56.6 -35.4 52.1 -38.9 48.8C-42.4 45.4 -46.1 43.1 -50.5 40.3C-55 37.5 -60.2 34.1 -60.9 29.3C-61.6 24.6 -57.9 18.4 -58.3 13.3C-58.6 8.2 -63.1 4.1 -67.6 0L0 0Z" fill="#009473"></path></g><g transform="translate(0, 600)"><path d="M0 -540.8C35 -519.6 70.1 -498.3 113.3 -496.2C156.4 -494.1 207.8 -511.1 234.7 -487.3C261.5 -463.4 264 -398.6 295.5 -370.6C327.1 -342.5 387.8 -351.2 409.7 -326.7C431.6 -302.2 414.7 -244.6 427.1 -205.7C439.5 -166.7 481.2 -146.4 505 -115.3C528.9 -84.1 534.8 -42.1 540.8 0L0 0Z" fill="#001a2c"></path><path d="M0 -473.2C30.7 -454.6 61.3 -436.1 99.1 -434.2C136.9 -432.4 181.8 -447.3 205.3 -426.4C228.8 -405.5 231 -348.8 258.6 -324.3C286.2 -299.7 339.3 -307.3 358.5 -285.9C377.6 -264.4 362.8 -214 373.7 -180C384.5 -145.9 421 -128.1 441.9 -100.9C462.8 -73.6 468 -36.8 473.2 0L0 0Z" fill="#002b40"></path><path d="M0 -405.6C26.3 -389.7 52.6 -373.8 84.9 -372.2C117.3 -370.6 155.8 -383.4 176 -365.5C196.2 -347.6 198 -299 221.7 -277.9C245.3 -256.9 290.8 -263.4 307.3 -245C323.7 -226.7 311 -183.5 320.3 -154.2C329.6 -125 360.9 -109.8 378.8 -86.4C396.6 -63.1 401.1 -31.5 405.6 0L0 0Z" fill="#003d52"></path><path d="M0 -338C21.9 -324.7 43.8 -311.5 70.8 -310.1C97.8 -308.8 129.9 -319.5 146.7 -304.5C163.5 -289.6 165 -249.2 184.7 -231.6C204.4 -214.1 242.4 -219.5 256 -204.2C269.7 -188.9 259.2 -152.9 266.9 -128.5C274.7 -104.2 300.7 -91.5 315.6 -72C330.5 -52.6 334.3 -26.3 338 0L0 0Z" fill="#005060"></path><path d="M0 -270.4C17.5 -259.8 35 -249.2 56.6 -248.1C78.2 -247.1 103.9 -255.6 117.3 -243.6C130.8 -231.7 132 -199.3 147.8 -185.3C163.5 -171.3 193.9 -175.6 204.8 -163.4C215.8 -151.1 207.3 -122.3 213.5 -102.8C219.7 -83.4 240.6 -73.2 252.5 -57.6C264.4 -42.1 267.4 -21 270.4 0L0 0Z" fill="#00636b"></path><path d="M0 -202.8C13.1 -194.8 26.3 -186.9 42.5 -186.1C58.7 -185.3 77.9 -191.7 88 -182.7C98.1 -173.8 99 -149.5 110.8 -139C122.7 -128.5 145.4 -131.7 153.6 -122.5C161.8 -113.3 155.5 -91.7 160.1 -77.1C164.8 -62.5 180.4 -54.9 189.4 -43.2C198.3 -31.5 200.6 -15.8 202.8 0L0 0Z" fill="#007772"></path><path d="M0 -135.2C8.8 -129.9 17.5 -124.6 28.3 -124.1C39.1 -123.5 51.9 -127.8 58.7 -121.8C65.4 -115.9 66 -99.7 73.9 -92.6C81.8 -85.6 96.9 -87.8 102.4 -81.7C107.9 -75.6 103.7 -61.2 106.8 -51.4C109.9 -41.7 120.3 -36.6 126.3 -28.8C132.2 -21 133.7 -10.5 135.2 0L0 0Z" fill="#008a73"></path><path d="M0 -67.6C4.4 -64.9 8.8 -62.3 14.2 -62C19.6 -61.8 26 -63.9 29.3 -60.9C32.7 -57.9 33 -49.8 36.9 -46.3C40.9 -42.8 48.5 -43.9 51.2 -40.8C53.9 -37.8 51.8 -30.6 53.4 -25.7C54.9 -20.8 60.1 -18.3 63.1 -14.4C66.1 -10.5 66.9 -5.3 67.6 0L0 0Z" fill="#009473"></path></g></svg>