<svg id="visual" viewBox="0 0 960 540" width="960" height="540" xmlns="http://www.w3.org/2000/svg" xmlns:xlink="http://www.w3.org/1999/xlink" version="1.1"><rect x="0" y="0" width="960" height="540" fill="#05284b"></rect><path d="M0 332L10 321.8C20 311.7 40 291.3 60 291.8C80 292.3 100 313.7 120 324.5C140 335.3 160 335.7 180 339.2C200 342.7 220 349.3 240 334.3C260 319.3 280 282.7 300 272.3C320 262 340 278 360 288.2C380 298.3 400 302.7 420 305.7C440 308.7 460 310.3 480 310.3C500 310.3 520 308.7 540 317.2C560 325.7 580 344.3 600 341.2C620 338 640 313 660 307.5C680 302 700 316 720 309.3C740 302.7 760 275.3 780 270.2C800 265 820 282 840 293.7C860 305.3 880 311.7 900 318.2C920 324.7 940 331.3 950 334.7L960 338L960 0L950 0C940 0 920 0 900 0C880 0 860 0 840 0C820 0 800 0 780 0C760 0 740 0 720 0C700 0 680 0 660 0C640 0 620 0 600 0C580 0 560 0 540 0C520 0 500 0 480 0C460 0 440 0 420 0C400 0 380 0 360 0C340 0 320 0 300 0C280 0 260 0 240 0C220 0 200 0 180 0C160 0 140 0 120 0C100 0 80 0 60 0C40 0 20 0 10 0L0 0Z" fill="#05284b"></path><path d="M0 323L10 312.7C20 302.3 40 281.7 60 266.5C80 251.3 100 241.7 120 252.3C140 263 160 294 180 301.8C200 309.7 220 294.3 240 286.2C260 278 280 277 300 282C320 287 340 298 360 291.2C380 284.3 400 259.7 420 264.7C440 269.7 460 304.3 480 310.5C500 316.7 520 294.3 540 287.8C560 281.3 580 290.7 600 288.3C620 286 640 272 660 260.3C680 248.7 700 239.3 720 242.5C740 245.7 760 261.3 780 267.3C800 273.3 820 269.7 840 273.8C860 278 880 290 900 301.8C920 313.7 940 325.3 950 331.2L960 337L960 0L950 0C940 0 920 0 900 0C880 0 860 0 840 0C820 0 800 0 780 0C760 0 740 0 720 0C700 0 680 0 660 0C640 0 620 0 600 0C580 0 560 0 540 0C520 0 500 0 480 0C460 0 440 0 420 0C400 0 380 0 360 0C340 0 320 0 300 0C280 0 260 0 240 0C220 0 200 0 180 0C160 0 140 0 120 0C100 0 80 0 60 0C40 0 20 0 10 0L0 0Z" fill="#252e59"></path><path d="M0 298L10 298.5C20 299 40 300 60 301.2C80 302.3 100 303.7 120 294.5C140 285.3 160 265.7 180 252.5C200 239.3 220 232.7 240 230.7C260 228.7 280 231.3 300 235.5C320 239.7 340 245.3 360 241.8C380 238.3 400 225.7 420 235.5C440 245.3 460 277.7 480 283C500 288.3 520 266.7 540 251.3C560 236 580 227 600 235C620 243 640 268 660 278.8C680 289.7 700 286.3 720 282.5C740 278.7 760 274.3 780 278.7C800 283 820 296 840 293.8C860 291.7 880 274.3 900 269.7C920 265 940 273 950 277L960 281L960 0L950 0C940 0 920 0 900 0C880 0 860 0 840 0C820 0 800 0 780 0C760 0 740 0 720 0C700 0 680 0 660 0C640 0 620 0 600 0C580 0 560 0 540 0C520 0 500 0 480 0C460 0 440 0 420 0C400 0 380 0 360 0C340 0 320 0 300 0C280 0 260 0 240 0C220 0 200 0 180 0C160 0 140 0 120 0C100 0 80 0 60 0C40 0 20 0 10 0L0 0Z" fill="#423264"></path><path d="M0 197L10 207.7C20 218.3 40 239.7 60 246.5C80 253.3 100 245.7 120 248.3C140 251 160 264 180 256C200 248 220 219 240 203.3C260 187.7 280 185.3 300 188.3C320 191.3 340 199.7 360 213.5C380 227.3 400 246.7 420 248.5C440 250.3 460 234.7 480 231.5C500 228.3 520 237.7 540 245C560 252.3 580 257.7 600 257.3C620 257 640 251 660 248.7C680 246.3 700 247.7 720 243.2C740 238.7 760 228.3 780 223C800 217.7 820 217.3 840 216.5C860 215.7 880 214.3 900 213.8C920 213.3 940 213.7 950 213.8L960 214L960 0L950 0C940 0 920 0 900 0C880 0 860 0 840 0C820 0 800 0 780 0C760 0 740 0 720 0C700 0 680 0 660 0C640 0 620 0 600 0C580 0 560 0 540 0C520 0 500 0 480 0C460 0 440 0 420 0C400 0 380 0 360 0C340 0 320 0 300 0C280 0 260 0 240 0C220 0 200 0 180 0C160 0 140 0 120 0C100 0 80 0 60 0C40 0 20 0 10 0L0 0Z" fill="#5f356b"></path><path d="M0 213L10 211C20 209 40 205 60 206.8C80 208.7 100 216.3 120 218.5C140 220.7 160 217.3 180 215.5C200 213.7 220 213.3 240 215C260 216.7 280 220.3 300 226.7C320 233 340 242 360 236.8C380 231.7 400 212.3 420 202.8C440 193.3 460 193.7 480 198.2C500 202.7 520 211.3 540 207.8C560 204.3 580 188.7 600 189.2C620 189.7 640 206.3 660 213C680 219.7 700 216.3 720 211C740 205.7 760 198.3 780 194.7C800 191 820 191 840 194.2C860 197.3 880 203.7 900 199C920 194.3 940 178.7 950 170.8L960 163L960 0L950 0C940 0 920 0 900 0C880 0 860 0 840 0C820 0 800 0 780 0C760 0 740 0 720 0C700 0 680 0 660 0C640 0 620 0 600 0C580 0 560 0 540 0C520 0 500 0 480 0C460 0 440 0 420 0C400 0 380 0 360 0C340 0 320 0 300 0C280 0 260 0 240 0C220 0 200 0 180 0C160 0 140 0 120 0C100 0 80 0 60 0C40 0 20 0 10 0L0 0Z" fill="#7b376e"></path><path d="M0 165L10 173.5C20 182 40 199 60 202.8C80 206.7 100 197.3 120 184.8C140 172.3 160 156.7 180 151.2C200 145.7 220 150.3 240 154.8C260 159.3 280 163.7 300 173C320 182.3 340 196.7 360 203.5C380 210.3 400 209.7 420 204.2C440 198.7 460 188.3 480 181.5C500 174.7 520 171.3 540 168.7C560 166 580 164 600 169.2C620 174.3 640 186.7 660 195.3C680 204 700 209 720 200.5C740 192 760 170 780 159C800 148 820 148 840 153.5C860 159 880 170 900 169.5C920 169 940 157 950 151L960 145L960 0L950 0C940 0 920 0 900 0C880 0 860 0 840 0C820 0 800 0 780 0C760 0 740 0 720 0C700 0 680 0 660 0C640 0 620 0 600 0C580 0 560 0 540 0C520 0 500 0 480 0C460 0 440 0 420 0C400 0 380 0 360 0C340 0 320 0 300 0C280 0 260 0 240 0C220 0 200 0 180 0C160 0 140 0 120 0C100 0 80 0 60 0C40 0 20 0 10 0L0 0Z" fill="#96386b"></path><path d="M0 140L10 138.2C20 136.3 40 132.7 60 130.7C80 128.7 100 128.3 120 128C140 127.7 160 127.3 180 129.3C200 131.3 220 135.7 240 142C260 148.3 280 156.7 300 160.2C320 163.7 340 162.3 360 157.3C380 152.3 400 143.7 420 147.7C440 151.7 460 168.3 480 166C500 163.7 520 142.3 540 142C560 141.7 580 162.3 600 166.3C620 170.3 640 157.7 660 148.3C680 139 700 133 720 138.8C740 144.7 760 162.3 780 169.3C800 176.3 820 172.7 840 169.8C860 167 880 165 900 166.2C920 167.3 940 171.7 950 173.8L960 176L960 0L950 0C940 0 920 0 900 0C880 0 860 0 840 0C820 0 800 0 780 0C760 0 740 0 720 0C700 0 680 0 660 0C640 0 620 0 600 0C580 0 560 0 540 0C520 0 500 0 480 0C460 0 440 0 420 0C400 0 380 0 360 0C340 0 320 0 300 0C280 0 260 0 240 0C220 0 200 0 180 0C160 0 140 0 120 0C100 0 80 0 60 0C40 0 20 0 10 0L0 0Z" fill="#af3d64"></path><path d="M0 144L10 140.5C20 137 40 130 60 123.5C80 117 100 111 120 117.5C140 124 160 143 180 144.7C200 146.3 220 130.7 240 130.2C260 129.7 280 144.3 300 152C320 159.7 340 160.3 360 156.5C380 152.7 400 144.3 420 140.7C440 137 460 138 480 131.8C500 125.7 520 112.3 540 110.3C560 108.3 580 117.7 600 120.8C620 124 640 121 660 120.5C680 120 700 122 720 119.7C740 117.3 760 110.7 780 110C800 109.3 820 114.7 840 120.7C860 126.7 880 133.3 900 138.2C920 143 940 146 950 147.5L960 149L960 0L950 0C940 0 920 0 900 0C880 0 860 0 840 0C820 0 800 0 780 0C760 0 740 0 720 0C700 0 680 0 660 0C640 0 620 0 600 0C580 0 560 0 540 0C520 0 500 0 480 0C460 0 440 0 420 0C400 0 380 0 360 0C340 0 320 0 300 0C280 0 260 0 240 0C220 0 200 0 180 0C160 0 140 0 120 0C100 0 80 0 60 0C40 0 20 0 10 0L0 0Z" fill="#c34559"></path><path d="M0 104L10 102.7C20 101.3 40 98.7 60 100.8C80 103 100 110 120 116.3C140 122.7 160 128.3 180 124.7C200 121 220 108 240 106.8C260 105.7 280 116.3 300 120.5C320 124.7 340 122.3 360 114.8C380 107.3 400 94.7 420 92C440 89.3 460 96.7 480 101.3C500 106 520 108 540 108.8C560 109.7 580 109.3 600 110.5C620 111.7 640 114.3 660 114C680 113.7 700 110.3 720 109.8C740 109.3 760 111.7 780 114.8C800 118 820 122 840 120.3C860 118.7 880 111.3 900 109.3C920 107.3 940 110.7 950 112.3L960 114L960 0L950 0C940 0 920 0 900 0C880 0 860 0 840 0C820 0 800 0 780 0C760 0 740 0 720 0C700 0 680 0 660 0C640 0 620 0 600 0C580 0 560 0 540 0C520 0 500 0 480 0C460 0 440 0 420 0C400 0 380 0 360 0C340 0 320 0 300 0C280 0 260 0 240 0C220 0 200 0 180 0C160 0 140 0 120 0C100 0 80 0 60 0C40 0 20 0 10 0L0 0Z" fill="#d2544c"></path><path d="M0 78L10 80C20 82 40 86 60 85.3C80 84.7 100 79.3 120 79.2C140 79 160 84 180 88.5C200 93 220 97 240 97.5C260 98 280 95 300 89.8C320 84.7 340 77.3 360 79C380 80.7 400 91.3 420 96.3C440 101.3 460 100.7 480 100C500 99.3 520 98.7 540 93.8C560 89 580 80 600 74.2C620 68.3 640 65.7 660 64.8C680 64 700 65 720 66.8C740 68.7 760 71.3 780 73.3C800 75.3 820 76.7 840 78.8C860 81 880 84 900 84.2C920 84.3 940 81.7 950 80.3L960 79L960 0L950 0C940 0 920 0 900 0C880 0 860 0 840 0C820 0 800 0 780 0C760 0 740 0 720 0C700 0 680 0 660 0C640 0 620 0 600 0C580 0 560 0 540 0C520 0 500 0 480 0C460 0 440 0 420 0C400 0 380 0 360 0C340 0 320 0 300 0C280 0 260 0 240 0C220 0 200 0 180 0C160 0 140 0 120 0C100 0 80 0 60 0C40 0 20 0 10 0L0 0Z" fill="#db663c"></path><path d="M0 66L10 62.7C20 59.3 40 52.7 60 52.5C80 52.3 100 58.7 120 57.5C140 56.3 160 47.7 180 49C200 50.3 220 61.7 240 67.5C260 73.3 280 73.7 300 68.8C320 64 340 54 360 48.8C380 43.7 400 43.3 420 47C440 50.7 460 58.3 480 61C500 63.7 520 61.3 540 57.5C560 53.7 580 48.3 600 46.5C620 44.7 640 46.3 660 47.7C680 49 700 50 720 50.5C740 51 760 51 780 50.5C800 50 820 49 840 51C860 53 880 58 900 56.2C920 54.3 940 45.7 950 41.3L960 37L960 0L950 0C940 0 920 0 900 0C880 0 860 0 840 0C820 0 800 0 780 0C760 0 740 0 720 0C700 0 680 0 660 0C640 0 620 0 600 0C580 0 560 0 540 0C520 0 500 0 480 0C460 0 440 0 420 0C400 0 380 0 360 0C340 0 320 0 300 0C280 0 260 0 240 0C220 0 200 0 180 0C160 0 140 0 120 0C100 0 80 0 60 0C40 0 20 0 10 0L0 0Z" fill="#de7b2a"></path><path d="M0 42L10 37.7C20 33.3 40 24.7 60 25.3C80 26 100 36 120 36.8C140 37.7 160 29.3 180 27.7C200 26 220 31 240 31.5C260 32 280 28 300 27.2C320 26.3 340 28.7 360 29.2C380 29.7 400 28.3 420 29.8C440 31.3 460 35.7 480 34.5C500 33.3 520 26.7 540 25.3C560 24 580 28 600 29.5C620 31 640 30 660 30.3C680 30.7 700 32.3 720 32.5C740 32.7 760 31.3 780 32.2C800 33 820 36 840 34.2C860 32.3 880 25.7 900 22.5C920 19.3 940 19.7 950 19.8L960 20L960 0L950 0C940 0 920 0 900 0C880 0 860 0 840 0C820 0 800 0 780 0C760 0 740 0 720 0C700 0 680 0 660 0C640 0 620 0 600 0C580 0 560 0 540 0C520 0 500 0 480 0C460 0 440 0 420 0C400 0 380 0 360 0C340 0 320 0 300 0C280 0 260 0 240 0C220 0 200 0 180 0C160 0 140 0 120 0C100 0 80 0 60 0C40 0 20 0 10 0L0 0Z" fill="#da9214"></path></svg>